<svg width="20" height="21" viewBox="0 0 20 21" fill="none" xmlns="http://www.w3.org/2000/svg">
<path fill-rule="evenodd" clip-rule="evenodd" d="M0 10.515C0 5.24712 4.21 0.5 10.02 0.5C15.7 0.5 20 5.15699 20 10.485C20 16.6642 14.96 20.5 10 20.5C8.36 20.5 6.54 20.0593 5.08 19.198C4.57 18.8876 4.14 18.6572 3.59 18.8375L1.57 19.4384C1.06 19.5986 0.6 19.198 0.75 18.6572L1.42 16.4139C1.53 16.1034 1.51 15.7729 1.35 15.5125C0.49 13.9301 0 12.1975 0 10.515ZM8.7 10.515C8.7 11.2261 9.27 11.7969 9.98 11.807C10.69 11.807 11.26 11.2261 11.26 10.525C11.26 9.81397 10.69 9.24311 9.98 9.24311C9.28 9.2331 8.7 9.81397 8.7 10.515ZM13.31 10.525C13.31 11.2261 13.88 11.807 14.59 11.807C15.3 11.807 15.87 11.2261 15.87 10.525C15.87 9.81397 15.3 9.24311 14.59 9.24311C13.88 9.24311 13.31 9.81397 13.31 10.525ZM5.37 11.807C4.67 11.807 4.09 11.2261 4.09 10.525C4.09 9.81397 4.66 9.24311 5.37 9.24311C6.08 9.24311 6.65 9.81397 6.65 10.525C6.65 11.2261 6.08 11.7969 5.37 11.807Z" fill="#5F739C"/>
</svg>
