<svg width="13" height="14" viewBox="0 0 13 14" fill="none" xmlns="http://www.w3.org/2000/svg">
<path d="M8.71429 0.143066C9.46072 0.143066 10.0957 0.620124 10.3311 1.28597L4.78731 1.28592C3.76843 1.28592 3.39896 1.39201 3.02647 1.59122C2.65398 1.79043 2.36165 2.08276 2.16245 2.45524C1.96324 2.82773 1.85715 3.1972 1.85715 4.21608L1.8572 10.3313C1.19135 10.0959 0.714294 9.46093 0.714294 8.7145V3.57164C0.714294 1.67809 2.24932 0.143066 4.14287 0.143066H8.71429ZM11 2.42878C11.9468 2.42878 12.7143 3.19629 12.7143 4.14307V11.5716C12.7143 12.5184 11.9468 13.2859 11 13.2859H4.71429C3.76752 13.2859 3.00001 12.5184 3.00001 11.5716V4.14307C3.00001 3.19629 3.76752 2.42878 4.71429 2.42878H11ZM11 3.57164H4.71429C4.3987 3.57164 4.14287 3.82748 4.14287 4.14307V11.5716C4.14287 11.8872 4.3987 12.1431 4.71429 12.1431H11C11.3156 12.1431 11.5714 11.8872 11.5714 11.5716V4.14307C11.5714 3.82748 11.3156 3.57164 11 3.57164Z" fill="#426DF6"/>
</svg>
