<svg width="18" height="22" viewBox="0 0 18 22" fill="none" xmlns="http://www.w3.org/2000/svg">
    <path d="M10.0331 0.818475C10.3804 0.898521 10.6942 1.02849 10.9964 1.21748C11.3015 1.40825 11.5355 1.60866 12.0184 2.09153L16.1938 6.26688C16.6766 6.74974 16.877 6.98382 17.0678 7.28887C17.2568 7.59105 17.3868 7.90484 17.4668 8.25214C17.5476 8.60275 17.5714 8.90997 17.5714 9.59285V15.4835C17.5714 17.1805 17.4125 18.0037 16.9549 18.8592C16.5389 19.6371 15.9232 20.2528 15.1453 20.6688C14.2898 21.1263 13.4666 21.2853 11.7696 21.2853H6.23034C4.53336 21.2853 3.7102 21.1263 2.8547 20.6688C2.07676 20.2528 1.46109 19.6371 1.04505 18.8592C0.587518 18.0037 0.428558 17.1805 0.428558 15.4835V5.91325C0.428558 4.81195 0.627154 3.9214 1.04505 3.14001C1.46109 2.36206 2.07676 1.7464 2.8547 1.33035C3.63609 0.912463 4.52664 0.713867 5.62794 0.713867H8.69243C9.37531 0.713867 9.68254 0.73767 10.0331 0.818475ZM8.85096 2.42861L5.62794 2.42815C4.79509 2.42815 4.18097 2.5651 3.66315 2.84203C3.18396 3.09831 2.813 3.46926 2.55673 3.94846C2.27979 4.46628 2.14284 5.0804 2.14284 5.91325V15.4835C2.14284 16.9217 2.25018 17.4775 2.55673 18.0507C2.813 18.5299 3.18396 18.9008 3.66315 19.1571C4.23635 19.4637 4.79216 19.571 6.23034 19.571H11.7696C13.2078 19.571 13.7636 19.4637 14.3368 19.1571C14.816 18.9008 15.187 18.5299 15.4432 18.0507C15.7498 17.4775 15.8571 16.9217 15.8571 15.4835V9.59285C15.8571 9.47516 15.8565 9.37367 15.855 9.28493L11.1428 9.28529C9.95938 9.28529 8.99999 8.3259 8.99999 7.14244L9.00126 2.43025C8.95482 2.4295 8.90489 2.42896 8.85096 2.42861ZM10.8062 3.30371L10.7143 3.21244V7.14244C10.7143 7.35283 10.8659 7.52782 11.0658 7.5641L11.1428 7.57101L15.0748 7.57277C15.0455 7.54315 15.0145 7.51196 14.9816 7.47906L10.8062 3.30371Z"
          fill="#426DF6"/>
</svg>
