<svg width="21" height="19" viewBox="0 0 21 19" fill="none" xmlns="http://www.w3.org/2000/svg">
<path d="M16.9994 11.7386L17 14.0001C17 16.7615 14.0898 19.0001 10.5 19.0001C6.91014 19.0001 3.99999 16.7615 3.99999 14.0001L3.9994 11.7386L9.01315 14.5999C9.87329 15.0907 10.9157 15.1234 11.8001 14.6979L11.987 14.5997L16.9994 11.7386ZM10.9956 0.857094L19.9912 5.99143C20.3142 6.17578 20.4953 6.51294 20.4956 6.85997L20.5 6.86009V13.0001C20.5 13.5524 20.0523 14.0001 19.5 14.0001C18.9477 14.0001 18.5 13.5524 18.5 13.0001L18.4994 8.57859L10.9956 12.8628C10.6885 13.0381 10.3115 13.0381 10.0043 12.8628L1.00599 7.72848C0.526296 7.45477 0.359312 6.84403 0.633018 6.36434C0.721722 6.20887 0.850526 6.08007 1.00599 5.99136L10.0043 0.857028C10.3115 0.681748 10.6885 0.681773 10.9956 0.857094Z" fill="#5F739C"/>
</svg>
