<svg width="20" height="21" viewBox="0 0 20 21" fill="none" xmlns="http://www.w3.org/2000/svg">
<path fill-rule="evenodd" clip-rule="evenodd" d="M11.4499 3.38017H14.5199C18.2099 3.38017 20.0099 5.35017 19.9999 9.39017V14.2602C19.9999 18.1202 17.6199 20.5002 13.7499 20.5002H6.23988C2.38988 20.5002 -0.00012207 18.1202 -0.00012207 14.2502V6.74017C-0.00012207 2.60017 1.83988 0.500171 5.46988 0.500171H7.04988C7.98088 0.490171 8.84988 0.920171 9.41988 1.65017L10.2999 2.82017C10.5799 3.17017 10.9999 3.38017 11.4499 3.38017ZM5.36988 13.7902H14.6299C15.0399 13.7902 15.3699 13.4502 15.3699 13.0402C15.3699 12.6202 15.0399 12.2902 14.6299 12.2902H5.36988C4.94988 12.2902 4.61988 12.6202 4.61988 13.0402C4.61988 13.4502 4.94988 13.7902 5.36988 13.7902Z" fill="#5F739C"/>
</svg>
