<svg width="10" height="10" viewBox="0 0 10 10" fill="none" xmlns="http://www.w3.org/2000/svg">
<path d="M5.48815 0.556807L6.60139 2.79394C6.68341 2.95603 6.83994 3.06858 7.02048 3.0936L9.52102 3.45778C9.66705 3.47829 9.79958 3.55533 9.8891 3.67289C9.97761 3.78895 10.0156 3.93603 9.99412 4.0806C9.97661 4.20066 9.9201 4.31172 9.83358 4.39676L8.02169 6.15315C7.88917 6.27571 7.82915 6.45731 7.86116 6.6349L8.30726 9.10415C8.35477 9.4023 8.15722 9.68345 7.86116 9.73998C7.73913 9.75949 7.61411 9.73898 7.50408 9.68295L5.2736 8.52086C5.10807 8.43731 4.91253 8.43731 4.74699 8.52086L2.51651 9.68295C2.24245 9.82852 1.90288 9.72947 1.75035 9.45933C1.69384 9.35178 1.67383 9.22922 1.69234 9.10966L2.13843 6.6399C2.17044 6.46281 2.10993 6.28022 1.9779 6.15765L0.166008 4.40226C-0.0495379 4.19416 -0.0560393 3.85148 0.151505 3.63587C0.156006 3.63137 0.161007 3.62637 0.166008 3.62137C0.252027 3.53382 0.365051 3.47829 0.487077 3.46379L2.98761 3.0991C3.16765 3.07359 3.32419 2.96203 3.4067 2.79895L4.47993 0.556807C4.57545 0.364709 4.7735 0.245149 4.98854 0.250151H5.05556C5.2421 0.272663 5.40463 0.388221 5.48815 0.556807Z" fill="#426DF6"/>
<path d="M4.99601 8.45856C4.89916 8.46156 4.8048 8.48758 4.71993 8.53412L2.50036 9.69357C2.22878 9.82318 1.90378 9.7226 1.75152 9.46288C1.6951 9.3568 1.67464 9.2352 1.69361 9.1161L2.13692 6.65158C2.16688 6.47243 2.10697 6.29028 1.97667 6.16418L0.163969 4.40924C-0.0511991 4.19857 -0.0551929 3.85278 0.155482 3.63711C0.158477 3.6341 0.160973 3.6316 0.163969 3.6291C0.249836 3.54403 0.360665 3.48798 0.479981 3.47047L2.98262 3.10217C3.16384 3.07915 3.32109 2.96605 3.40097 2.80192L4.48879 0.531559C4.59213 0.348409 4.79032 0.239319 5 0.250829C4.99601 0.399451 4.99601 8.35748 4.99601 8.45856Z" fill="#426DF6"/>
</svg>
