<svg width="24" height="25" viewBox="0 0 24 25" fill="none" xmlns="http://www.w3.org/2000/svg">
<ellipse cx="7.5" cy="8" rx="4.5" ry="5.25" fill="#5F739C"/>
<path d="M14.25 20.75C14.25 23 12 22.25 7.49997 22.25C2.99994 22.25 0.75 23 0.75 20.75C0.75 18.5 2.99994 15.5 7.49997 15.5C12 15.5 14.25 18.5 14.25 20.75Z" fill="#5F739C"/>
<path fill-rule="evenodd" clip-rule="evenodd" d="M13.5 8C13.5 9.07299 13.2675 10.122 12.8437 11.0611C13.6605 12.3867 14.9938 13.25 16.5 13.25C18.9853 13.25 21 10.8995 21 8C21 5.10051 18.9853 2.75 16.5 2.75C14.9938 2.75 13.6605 3.6133 12.8437 4.93892C13.2675 5.87798 13.5 6.92701 13.5 8ZM19.2 22.3214C21.9 22.4357 23.25 22.4928 23.25 20.75C23.25 18.5 21 15.5 16.5 15.5C15.3238 15.5 14.3013 15.705 13.4325 16.0479C14.9365 17.3504 15.75 19.0973 15.75 20.75C15.75 21.253 15.669 21.782 15.431 22.2632C15.772 22.2551 16.1283 22.25 16.5 22.25C17.5143 22.25 18.4143 22.2881 19.2 22.3214ZM12 22.3688C13.5 22.3481 14.25 22.049 14.25 20.75C14.25 19.451 13.5 17.9019 12 16.8246C10.5 17.9019 9.75 19.451 9.75 20.75C9.75 22.0491 10.5 22.3481 12 22.3688Z" fill="#5F739C"/>
</svg>
