<svg xmlns="http://www.w3.org/2000/svg" xmlns:xlink="http://www.w3.org/1999/xlink" viewBox="0 0 632.23 130.72"><defs><style>.cls-1{isolation:isolate;}.cls-2{fill:#28242b;}.cls-3{fill:url(#linear-gradient);}.cls-4,.cls-5,.cls-6{mix-blend-mode:multiply;}.cls-4{fill:url(#linear-gradient-2);}.cls-5{fill:url(#linear-gradient-3);}.cls-6{fill:url(#linear-gradient-4);}.cls-7,.cls-8{mix-blend-mode:screen;}.cls-7{fill:url(#radial-gradient);}.cls-8{fill:url(#radial-gradient-2);}</style><linearGradient id="linear-gradient" x1="250.35" y1="149.72" x2="95.71" y2="356.66" gradientUnits="userSpaceOnUse"><stop offset="0" stop-color="#6cbffc"/><stop offset="1" stop-color="#81239c"/></linearGradient><linearGradient id="linear-gradient-2" x1="187.59" y1="291.46" x2="28.06" y2="295.05" gradientUnits="userSpaceOnUse"><stop offset="0" stop-color="#393e77"/><stop offset="0.44" stop-color="#9699b7"/><stop offset="0.82" stop-color="#e1e2eb"/><stop offset="1" stop-color="#fff"/></linearGradient><linearGradient id="linear-gradient-3" x1="187.96" y1="296.1" x2="83.55" y2="242.33" xlink:href="#linear-gradient-2"/><linearGradient id="linear-gradient-4" x1="169.36" y1="296.66" x2="85.57" y2="344.84" gradientUnits="userSpaceOnUse"><stop offset="0" stop-color="#7a5735"/><stop offset="0.45" stop-color="#baa896"/><stop offset="0.83" stop-color="#ece6e1"/><stop offset="1" stop-color="#fff"/></linearGradient><radialGradient id="radial-gradient" cx="34.78" cy="-3.8" r="75.05" gradientUnits="userSpaceOnUse"><stop offset="0" stop-color="#fff"/><stop offset="0.45" stop-color="#8e8e8e"/><stop offset="1"/></radialGradient><radialGradient id="radial-gradient-2" cx="33.88" cy="133.02" r="74.22" xlink:href="#radial-gradient"/></defs><title>ONELINKS2</title><g class="cls-1"><g id="Слой_1" data-name="Слой 1"><path class="cls-2" d="M312.58,313.33a28.58,28.58,0,1,1,8.19-20A27.3,27.3,0,0,1,312.58,313.33Zm-31.2-8.43a16.37,16.37,0,0,0,22.5,0,17.13,17.13,0,0,0,0-23.19,16.34,16.34,0,0,0-22.5,0,17.13,17.13,0,0,0,0,23.19Z" transform="translate(-85.99 -228.09)"/><path class="cls-2" d="M372.57,266.25h12.37v54.11h-9.28L354.79,291v29.37H342.42V266.25h9.28l20.87,29.37Z" transform="translate(-85.99 -228.09)"/><path class="cls-2" d="M421.28,308.46h21.64v11.9h-34V266.25h33.63v11.9H421.28v9H440.6v11.75H421.28Z" transform="translate(-85.99 -228.09)"/><path class="cls-2" d="M476.94,308.46h19.33v11.9h-31.7V266.25h12.37Z" transform="translate(-85.99 -228.09)"/><path class="cls-2" d="M516.37,266.25h12.37v54.11H516.37Z" transform="translate(-85.99 -228.09)"/><path class="cls-2" d="M582.85,266.25h12.37v54.11H586L565.07,291v29.37H552.7V266.25H562l20.87,29.37Z" transform="translate(-85.99 -228.09)"/><path class="cls-2" d="M663,320.36H648.88l-17.32-25.05v25.05H619.19V266.25h12.37v23.5l16.54-23.5h14.07l-18.24,26.36Z" transform="translate(-85.99 -228.09)"/><path class="cls-2" d="M698.12,321.45q-8.26,0-13.8-3.6a19.55,19.55,0,0,1-7.84-9.78l10.66-6.18q3.25,7.5,11.37,7.49c4.9,0,7.34-1.46,7.34-4.4a4.15,4.15,0,0,0-2.35-3.75,43.2,43.2,0,0,0-8.86-3.13,40.46,40.46,0,0,1-5.95-2.09,25.15,25.15,0,0,1-5-3.05A12.32,12.32,0,0,1,680,288.2a16,16,0,0,1-1.27-6.57,14.81,14.81,0,0,1,5.37-12,19.34,19.34,0,0,1,12.8-4.49,22.07,22.07,0,0,1,11.75,3.13,21.54,21.54,0,0,1,8,9.09l-10.44,6.11a12.11,12.11,0,0,0-3.63-4.68,9.45,9.45,0,0,0-5.72-1.59,6.77,6.77,0,0,0-4.3,1.2,3.61,3.61,0,0,0-1.5,2.9A4.32,4.32,0,0,0,693,284.8q1.89,1.47,7.85,3.25c2.16.67,3.84,1.21,5,1.62a35.64,35.64,0,0,1,4.53,2.05,14.77,14.77,0,0,1,4.17,3,15.4,15.4,0,0,1,2.55,4.18,14.73,14.73,0,0,1,1.12,5.91q0,7.74-5.56,12.18T698.12,321.45Z" transform="translate(-85.99 -228.09)"/><path class="cls-3" d="M130.09,261.7a10.41,10.41,0,0,1,4.77,1.16l41.54,21.26a10.48,10.48,0,0,1,0,18.66L134.86,324a10.47,10.47,0,0,1-15.26-9.33V272.19a10.49,10.49,0,0,1,10.49-10.49m0-33.61A44.15,44.15,0,0,0,86,272.19v42.52A44.08,44.08,0,0,0,150.17,354l41.54-21.26a44.09,44.09,0,0,0,0-78.5l-41.54-21.26a44.37,44.37,0,0,0-20.08-4.85Z" transform="translate(-85.99 -228.09)"/><path class="cls-4" d="M134.86,324a10.47,10.47,0,0,1-15.26-9.33V272.19a10.49,10.49,0,0,1,10.49-10.49,10.33,10.33,0,0,1,3.82.74l-37.22-19A43.92,43.92,0,0,0,86,272.19v42.52a43.91,43.91,0,0,0,10.8,28.86Z" transform="translate(-85.99 -228.09)"/><path class="cls-5" d="M90.94,252l40.14,9.79a10.27,10.27,0,0,1,2.83.69l-37.22-19A44.85,44.85,0,0,0,90.94,252Z" transform="translate(-85.99 -228.09)"/><path class="cls-6" d="M96.79,343.57,134.86,324a10.41,10.41,0,0,1-4.77,1.16h-.17l-39.27,9.19A44.26,44.26,0,0,0,96.79,343.57Z" transform="translate(-85.99 -228.09)"/><polygon class="cls-7" points="10.7 15.36 88 54.8 88.01 51.92 10.7 15.36"/><polygon class="cls-8" points="10.79 115.48 87.04 76.38 87.04 79.07 10.79 115.48"/></g></g></svg>